<svg width="667" height="1069" viewBox="0 0 667 1069" fill="none" xmlns="http://www.w3.org/2000/svg">
<g clip-path="url(#clip0)">
<rect x="28.5481" y="6.20273" width="623.347" height="1056.27" rx="311.674" fill="#2C3E50"/>
<mask id="mask0" mask-type="alpha" maskUnits="userSpaceOnUse" x="28" y="6" width="624" height="1057">
<rect x="28.5481" y="6.20273" width="623.347" height="1056.27" rx="311.674" fill="#2C3E50"/>
</mask>
<g mask="url(#mask0)">
<path d="M1644.33 -161.664L-1209.83 341.602L-1198.82 404.015L1655.34 -99.2504L1644.33 -161.664Z" fill="#22323F"/>
<path d="M1670.94 -62.366L-1183.22 440.9L-1172.22 503.313L1681.95 0.0473261L1670.94 -62.366Z" fill="#22323F"/>
<path d="M1697.55 36.9315L-1156.61 540.197L-1145.61 602.611L1708.55 99.3447L1697.55 36.9315Z" fill="#22323F"/>
<path d="M1724.16 136.229L-1130.01 639.495L-1119 701.908L1735.16 198.642L1724.16 136.229Z" fill="#22323F"/>
<path d="M1750.76 235.526L-1103.4 738.792L-1092.4 801.205L1761.77 297.939L1750.76 235.526Z" fill="#22323F"/>
<path d="M1777.37 334.823L-1076.79 838.089L-1065.79 900.502L1788.37 397.237L1777.37 334.823Z" fill="#22323F"/>
<path d="M1804.01 434.265L-1050.15 937.531L-1039.14 999.944L1815.02 496.678L1804.01 434.265Z" fill="#22323F"/>
<path d="M1835.24 550.806L-1018.92 1054.07L-1007.92 1116.49L1846.25 613.22L1835.24 550.806Z" fill="#22323F"/>
<path d="M1865.43 663.468L-988.734 1166.73L-977.729 1229.15L1876.43 725.881L1865.43 663.468Z" fill="#22323F"/>
</g>
<path d="M543.723 820.766C544.846 833.401 558.702 840.205 566.715 850.074C578.773 864.878 577.051 886.262 574.654 905.402C574.354 908.168 573.98 911.01 573.306 913.701L492.421 979.904L389.891 1016.35C332.597 951.638 324.596 877.514 325.345 866.374C314.5 840.539 348.575 818.026 357.612 809.177C367.048 809.027 372.89 798.56 374.089 789.214C375.287 779.868 374.088 769.849 378.432 761.475C385.323 748.316 402.398 745.176 417.152 743.456C405.02 751.531 391.763 761.251 389.891 775.681C388.693 784.728 392.438 793.924 391.239 802.971C389.142 818.448 373.19 831.009 375.661 846.411C377.009 854.486 383.974 861.289 392.063 862.411C400.152 863.532 408.689 858.972 412.209 851.57C415.055 845.588 414.606 838.56 413.632 832.055C411.91 820.467 408.54 809.102 407.791 797.438C407.042 785.775 409.214 773.214 417.078 764.541C421.571 759.531 427.563 756.167 432.581 751.756C440.444 744.802 445.762 735.456 452.877 727.755C459.992 720.054 470.402 713.923 480.587 716.391C463.512 728.279 449.132 744.054 438.797 762.148C434.303 770.073 430.484 778.672 430.259 787.793C430.034 796.915 433.929 806.56 441.867 811.121C449.806 815.607 461.639 813.139 465.384 804.84C470.477 793.625 459.692 779.793 464.785 768.578C466.732 764.316 470.701 761.326 474.671 758.709C487.927 749.961 502.681 743.456 518.109 739.718L517.986 739.794C508.739 745.527 499.355 751.344 492.421 759.681C485.456 768.055 481.262 779.494 484.182 789.962C486.429 798.111 492.795 805.364 491.971 813.812C490.698 826.448 474.371 832.654 471.376 844.99C469.054 854.56 476.918 864.878 486.654 866.374C496.39 867.869 506.351 861.289 510.096 852.168C513.99 842.448 511.818 830.934 516.911 821.812C522.753 811.42 536.608 807.158 541.851 796.391C544.322 791.307 544.547 785.326 546.943 780.167C552.336 768.653 566.566 764.915 578.998 762.447C567.389 774.784 557.279 788.541 549.04 803.345C546.045 808.728 543.199 814.635 543.723 820.766Z" fill="#A30000"/>
<path d="M115.216 856.025C123.229 846.156 137.085 839.352 138.208 826.716C138.732 820.585 135.886 814.679 132.891 809.296C124.652 794.492 114.542 780.734 102.933 768.398C115.365 770.865 129.595 774.604 134.988 786.118C137.384 791.277 137.609 797.258 140.08 802.342C145.323 813.109 159.178 817.37 165.02 827.763C170.113 836.885 167.941 848.399 171.835 858.118C175.58 867.24 185.541 873.82 195.277 872.324C205.013 870.829 212.877 860.511 210.555 850.941C207.56 838.604 191.233 832.399 189.96 819.763C189.136 811.314 195.502 804.062 197.749 795.912C200.67 785.445 196.475 774.005 189.51 765.632C182.545 757.258 173.109 751.426 163.822 745.669C179.25 749.407 194.004 755.912 207.26 764.66C211.23 767.276 215.199 770.267 217.146 774.529C222.239 785.744 211.454 799.576 216.547 810.791C220.292 819.09 232.125 821.557 240.064 817.071C248.002 812.511 251.897 802.866 251.672 793.744C251.447 784.622 247.628 776.024 243.134 768.099C232.799 750.005 218.419 734.229 201.344 722.341C211.529 719.874 221.939 726.005 229.054 733.706C236.169 741.407 241.487 750.753 249.35 757.706C254.368 762.117 260.36 765.482 264.853 770.491C272.717 779.164 274.889 791.725 274.14 803.389C273.391 815.053 270.021 826.417 268.299 838.006C267.325 844.511 266.876 851.539 269.722 857.52C273.242 864.922 281.779 869.483 289.868 868.362C297.957 867.24 304.922 860.436 306.27 852.361C308.741 836.959 292.789 824.398 290.692 808.922C289.494 799.875 293.238 790.679 292.04 781.632C290.168 767.202 276.911 757.482 264.779 749.407C279.533 751.127 296.609 754.267 303.499 767.426C307.843 775.8 306.644 785.819 307.843 795.165C309.041 804.51 314.883 814.978 324.319 815.127C334.729 815.277 340.721 801.669 337.201 791.875C333.681 782.08 324.469 775.65 315.781 769.893C329.112 776.024 341.47 785.071 349.334 797.408C357.198 809.819 359.969 825.894 354.427 839.427C349.484 851.315 338.549 861.109 337.875 873.969C338.624 885.109 349.334 957.588 292.04 1022.3L189.51 985.855L108.625 919.652C107.951 916.96 107.577 914.119 107.277 911.353C104.88 892.212 103.158 870.829 115.216 856.025Z" fill="#B76403"/>
<path d="M278.482 1020.07C278.482 1020.07 313.443 891.386 313.443 863.119C313.443 834.853 364.025 918.908 379.646 956.1C395.267 993.293 384.853 1020.07 384.853 1020.07H278.482Z" fill="#B76403"/>
<path d="M56.8147 520.948V320.852C56.8147 164.33 183.7 37.4445 340.222 37.4445V37.4445C496.743 37.4445 623.629 164.33 623.629 320.852V464.415" stroke="white" stroke-width="16.3647" stroke-linecap="round"/>
<path d="M623.629 610.954L623.629 741.872C623.629 898.393 496.743 1025.28 340.221 1025.28V1025.28C183.7 1025.28 56.8141 898.393 56.8141 741.872L56.8141 734.433" stroke="white" stroke-width="16.3647" stroke-linecap="round"/>
<path d="M1.02563 586.407C1.02563 562.008 20.3658 544.255 29.292 539.544L42.6813 599.052L28.5481 633.269C19.6219 628.062 1.02563 610.805 1.02563 586.407Z" fill="#22323F"/>
<path d="M65.0728 706.654C81.2476 703.802 93.4122 683.348 102.609 659.429C109.799 640.577 115.977 617.01 119.96 600.536L135.256 597.839L137.884 590.125L121.006 593.101C123.893 581.715 135.037 533.886 138.151 530.981L119.111 535.063C119.307 540.286 117.196 546.821 113.049 549.003C104.672 553.924 88.2909 550.468 68.487 548.159C36.3457 544.762 14.0672 563.374 16.9073 590.79C18.5907 607.534 31.5264 619.211 45.4568 618.024C54.3714 617.177 65.8616 612.432 69.9698 593.58C51.7049 605.139 39.1 594.31 40.6322 582.438C41.6467 574.826 48.4112 566.926 63.3553 564.291C80.2332 561.315 101.506 563.728 114.516 558.352C111.35 571.237 106.662 590.917 105.359 595.86L80.3933 600.262L77.0932 608.276L103.113 603.688C98.3953 620.11 90.7292 641.402 80.2306 654.855C70.0525 668.07 54.9327 670.736 42.6369 667.829C51.498 680.043 59.6864 695.64 65.0728 706.654ZM141.993 666.262C151.135 664.65 158.676 651.9 162.628 638.332C161.427 654.134 165.717 660.991 172.202 660.754C182.15 660.631 197.148 644.935 207.431 621.006L202.55 616.972C191.367 641.966 173.311 641.343 181.474 613.618C185.799 599.079 191.924 582.409 195.657 579.938L174.384 583.689C175.842 585.788 173.876 592.117 172.624 596.326C171.208 589.324 165.48 585.621 158.53 586.303C143.493 588.41 131.091 608.544 125.783 624.707C118.127 647.085 128.104 668.711 141.993 666.262ZM145.171 642.135C136.205 643.716 137.127 629.414 142.9 615.888C147.462 604.751 154.982 592.911 163.575 595.383C169.263 597.825 170.462 603.596 166.406 615.55C162.206 627.711 153.786 640.616 145.171 642.135ZM232.703 648.273C244.876 641.232 256.348 625.07 261.521 607.118L255.874 605.938C251.974 615.689 248.83 621.501 242.086 625.409C243.298 613.775 227.59 603.855 225.513 592.076C223.994 583.461 227.687 579.728 231.503 579.78C240.893 579.575 241.604 595.946 231.067 589.646C232.39 593.039 236.62 596.462 237.519 601.561C247.582 597.974 248.949 584.137 241.255 577.517C231.701 569.594 217.553 575.714 212.659 589.085L201.186 620.657L206.263 623.75C208.311 619.944 211.539 610.492 213.857 604.102C215.811 609.014 225.231 615.148 223.12 624.765C221.485 631.942 210.378 630.638 210.462 623.916L199.517 646.149C211.657 654.341 222.868 654.177 232.703 648.273ZM266.207 643.997C277.975 643.916 293.79 630.795 303.308 603.556L298.831 598.726C289.602 622.469 264.523 627.254 272.873 600.584L281.791 572.001L295.153 569.645L298.277 561.662L283.509 564.266L298.77 510.998L279.255 514.439C280.92 516.683 279.037 522.454 278.354 524.75L266.455 567.273L253.445 569.567L250.321 577.55L264.386 575.07L255.902 603.033C247.759 629.847 254.086 644.14 266.207 643.997ZM424.788 618.573C437.095 616.403 450.561 603.333 440.554 578.45C437.14 586.847 427.211 592.223 417.19 593.99C403.653 596.377 388.306 593.645 381.605 592.651C387.232 582.413 396.956 561.483 403.101 546.985C424.01 560.701 444.84 547.239 456.033 523.331C461.04 512.659 463.42 500.456 462.211 490.518C461.003 480.579 456.112 472.378 446.05 469.801C444.52 469.346 440.9 468.353 436.36 469.334C421.509 472.497 408.144 496.426 395.296 525.339C383.529 510.011 362.703 495.737 344.368 493.531C326.974 491.523 316.879 501.098 313.496 512.752C307.898 532.411 321.37 557.409 351.766 540.628C330.039 536.664 332.938 510.956 348.565 509.107C361.233 507.96 377.291 523.982 389.751 538.1C381.63 557.841 367.552 583.89 364.511 588.233C355.803 586.142 347.447 587.072 341.138 590.36C319.781 600.833 329.953 633.845 352.509 629.142C364.195 626.538 369.461 615.277 375.222 603.747C388.417 614.835 408.261 621.487 424.788 618.573ZM406.929 532.714C412.961 512.435 433.36 474.939 444.239 477.009C448.179 477.765 450.516 482.791 451.311 489.358C455.444 516.909 432.637 544.859 406.929 532.714ZM343.679 614.022C337.474 612.759 335.107 604.475 341.044 599.078C345.44 595.221 353.527 593.795 361.066 596.454C353.773 607.529 350.37 613.93 343.679 614.022ZM468.378 608.711C477.521 607.099 485.061 594.349 489.014 580.782C487.812 596.583 492.103 603.441 498.587 603.204C508.536 603.081 523.533 587.384 533.816 563.455L528.936 559.421C517.753 584.415 499.696 583.792 507.86 556.068C512.185 541.528 518.309 524.858 522.043 522.387L500.77 526.138C502.227 528.238 500.262 534.566 499.01 538.775C497.594 531.774 491.865 528.071 484.915 528.752C469.878 530.86 457.476 550.993 452.169 567.157C444.513 589.535 454.489 611.16 468.378 608.711ZM471.557 584.585C462.59 586.166 463.513 571.864 469.285 558.337C473.847 547.2 481.367 535.36 489.961 537.833C495.648 540.274 496.847 546.045 492.792 557.999C488.591 570.161 480.171 583.066 471.557 584.585ZM516.429 600.42L535.241 597.103C534.374 589.098 539.402 571.353 543.789 560.247C552.117 537.569 563.236 524.55 567.838 523.92C571.003 523.362 570.071 530.415 565.519 542.638C556.787 566.112 553.661 589.504 569.173 591.12C580.983 592.3 596.25 574.019 601.703 551.485L595.933 549.602C584.502 573.19 572.123 570.84 583.773 536.156C588.366 522.113 586.113 513.446 579.267 512.659C571.656 511.645 558.48 518.138 546.014 544.083C547.473 540.019 553.174 521.974 555.088 516.379L533.815 520.13C536.792 524.681 532.022 544.919 526.197 565.343L516.429 600.42ZM614.443 582.956C632.024 579.856 647.394 560.106 653.705 541.409C652.051 540.251 650.251 539.299 648.628 538.316C643.486 550.281 633.423 556.95 624.746 558.117C615.19 559.44 607.476 553.73 611.491 540.514C618.17 548.581 634.511 544.612 640.841 534.251C647.378 524.034 647.05 507.777 634.516 504.549C617.039 500.017 602.424 518.909 596.62 538.423C589.76 561.205 594.752 586.428 614.443 582.956ZM621.988 536.306C619.62 537.268 616.89 537.205 613.911 535.736C615.36 527.505 625.508 511.032 630.771 512.098C635.332 513.288 633.304 522.347 630.335 528.127C628.08 531.788 625.38 534.983 621.988 536.306Z" fill="white"/>
<path d="M119.132 470.03C121.302 482.337 132.934 490.374 145.241 488.204C150.717 487.238 155.673 484.398 159.141 479.599C159.496 479.092 159.416 478.281 158.91 477.926L153.209 473.665C152.764 473.3 151.964 473.441 151.599 473.886C149.72 476.184 147.258 477.697 143.874 478.293C136.92 479.52 130.753 474.77 129.549 467.94C128.334 461.048 132.421 454.363 139.375 453.137C142.39 452.605 145.322 453.04 148.235 454.81C148.742 455.165 149.419 455.046 149.773 454.539L153.694 448.708C154.1 448.129 153.97 447.391 153.329 446.996C148.472 443.919 143.582 442.814 137.429 443.899C125.122 446.069 116.962 457.723 119.132 470.03ZM187.942 480.04L194.711 478.847C195.942 478.63 196.488 477.772 196.666 476.979L198.013 471.666L214.75 468.715L217.823 473.185C218.583 474.257 219.14 474.539 220.248 474.344L227.078 473.139C228.001 472.977 228.352 472.09 227.842 471.355L201.28 433.339C201.03 433.002 200.545 432.77 200.114 432.846L199.499 432.955C199.068 433.031 198.692 433.414 198.572 433.816L186.614 478.625C186.386 479.49 187.019 480.203 187.942 480.04ZM200.229 462.646L203.054 451.679L203.116 451.668L209.583 460.997L200.229 462.646ZM257.388 466.589C257.496 467.205 258.086 467.672 258.763 467.552L266.086 466.261C266.701 466.153 267.157 465.501 267.049 464.886L264.282 449.195L268.528 448.446L279.587 463.31C279.754 463.534 280.177 463.777 280.669 463.69L288.854 462.247C289.9 462.062 290.157 461.002 289.585 460.278L278.399 446.135C283.742 442.972 286.323 437.822 285.325 432.16C284.034 424.838 277.382 419.856 269.567 421.234L251.168 424.479C250.491 424.598 250.097 425.238 250.205 425.854L257.388 466.589ZM262.904 441.38L261.211 431.781L270.319 430.175C272.841 429.73 275.31 431.135 275.82 434.027C276.33 436.919 274.534 439.329 272.011 439.774L262.904 441.38ZM334.831 433.583L334.462 433.648L320.349 412.978C320.171 412.692 319.675 412.399 319.183 412.486L310.999 413.929C310.076 414.091 309.725 414.978 310.235 415.713L336.736 453.74C336.986 454.077 337.409 454.32 337.901 454.233L338.517 454.124C339.009 454.037 339.324 453.665 339.444 453.263L351.463 408.443C351.691 407.578 351.058 406.865 350.135 407.028L341.951 408.471C341.459 408.558 341.093 409.003 341.024 409.332L334.831 433.583ZM379.984 446.178L386.753 444.984C387.984 444.767 388.53 443.91 388.708 443.117L390.055 437.804L406.792 434.852L409.865 439.323C410.625 440.395 411.182 440.677 412.29 440.482L419.12 439.277C420.043 439.115 420.394 438.228 419.884 437.493L393.322 399.476C393.072 399.14 392.587 398.908 392.156 398.984L391.541 399.093C391.11 399.169 390.734 399.552 390.614 399.954L378.656 444.763C378.428 445.628 379.061 446.341 379.984 446.178ZM392.271 428.784L395.096 417.817L395.158 417.806L401.625 427.135L392.271 428.784ZM449.43 432.727C449.539 433.343 450.19 433.799 450.805 433.69L458.128 432.399C458.805 432.28 459.199 431.639 459.091 431.024L455.044 408.072L455.105 408.061L483.285 427.9C483.864 428.305 484.327 428.414 484.942 428.305L485.558 428.197C486.173 428.088 486.662 427.622 486.531 426.883L479.229 385.471C479.121 384.855 478.469 384.399 477.854 384.508L470.47 385.81C469.793 385.929 469.398 386.57 469.507 387.185L473.359 409.03L473.297 409.041L445.664 390.501C445.085 390.095 444.579 389.741 443.963 389.849L443.04 390.012C442.425 390.12 441.958 390.71 442.066 391.326L449.43 432.727ZM517.126 421.996L523.895 420.803C525.126 420.586 525.672 419.728 525.85 418.935L527.197 413.622L543.934 410.671L547.007 415.141C547.767 416.213 548.324 416.495 549.432 416.3L556.262 415.095C557.185 414.933 557.536 414.046 557.026 413.311L530.464 375.295C530.214 374.958 529.729 374.726 529.298 374.802L528.683 374.911C528.252 374.987 527.876 375.37 527.756 375.772L515.798 420.581C515.57 421.446 516.203 422.159 517.126 421.996ZM529.413 404.602L532.238 393.635L532.3 393.624L538.767 402.953L529.413 404.602Z" fill="white"/>
<path d="M100.082 315.459C96.871 317.468 90.8172 323.272 92.4891 338.002C95.5708 331.552 99.953 330.779 100.07 315.543C100.07 315.543 100.065 315.517 100.082 315.459Z" fill="#2C3E50"/>
<path d="M88.8292 347.657C88.8292 347.657 89.0809 346.306 90.0736 343.6C87.7986 343.974 83.671 345.572 83.9107 352.335C84.2402 361.613 89.6986 371.266 102.646 369.364C95.8515 366.643 89.0572 360.682 88.8292 347.657Z" fill="white"/>
<path d="M325.813 242.286C326.193 241.974 326.434 241.795 326.487 241.786C326.535 241.75 326.294 241.929 325.813 242.286C323.005 244.577 312.053 253.939 306.335 258.867C306.579 259.015 306.823 259.162 307.129 259.353C313.536 254.63 324.626 246.823 327.445 244.747C327.825 244.435 328.066 244.257 328.119 244.247C328.193 244.207 327.931 244.416 327.445 244.747C324.777 246.905 314.892 255.371 308.986 260.468C309.26 260.638 309.562 260.802 309.894 260.989C316.402 256.221 326.429 249.173 329.076 247.209C329.457 246.897 329.698 246.718 329.75 246.709C329.825 246.668 329.562 246.878 329.076 247.209C326.574 249.228 317.708 256.835 311.728 261.972C312.086 262.154 312.445 262.335 312.83 262.513C319.295 257.807 328.231 251.522 330.713 249.696C331.093 249.384 331.334 249.206 331.387 249.197C331.461 249.156 331.199 249.366 330.713 249.696C328.403 251.573 320.573 258.262 314.689 263.328C315.127 263.496 315.569 263.69 316.033 263.853C322.284 259.321 330.055 253.841 332.371 252.153C332.751 251.841 332.992 251.663 333.045 251.653C333.119 251.613 332.857 251.823 332.371 252.153C330.254 253.887 323.512 259.649 317.859 264.484C318.381 264.664 318.956 264.835 319.499 264.984C325.369 260.764 331.901 256.128 333.976 254.619C334.357 254.307 334.597 254.129 334.65 254.119C334.725 254.079 334.462 254.289 333.976 254.619C332.069 256.153 326.438 260.957 321.213 265.444C321.867 265.601 322.574 265.748 323.28 265.896C328.498 262.145 333.774 258.411 335.608 257.081C335.988 256.769 336.229 256.59 336.282 256.581C336.356 256.541 336.094 256.75 335.608 257.081C333.941 258.436 329.442 262.251 324.878 266.159C329.729 266.964 335.571 267.213 342.583 266.385L332.98 233.999C332.98 233.999 300.067 255.427 302.276 258.848C302.562 258.77 302.852 258.719 303.111 258.646C308.586 254.496 322.583 244.652 325.813 242.286Z" fill="#2C3E50"/>
<path d="M574.365 265.038C555.474 225.362 479.056 224.519 479.056 224.519C447.427 211.397 419.781 218.857 419.781 218.857L421.722 229.865C410.137 247.369 371.94 261.372 347.073 265.756C345.515 266.031 344.001 266.244 342.535 266.42C335.549 267.244 329.681 266.999 324.83 266.194C329.421 262.282 333.915 258.441 335.56 257.116C333.726 258.447 328.477 262.176 323.232 265.932C322.526 265.784 321.819 265.636 321.165 265.48C326.394 261.019 332.026 256.215 333.928 254.655C331.853 256.164 325.295 260.805 319.451 265.02C318.877 264.849 318.333 264.7 317.811 264.519C323.464 259.685 330.206 253.923 332.323 252.189C330.034 253.872 322.263 259.352 315.985 263.889C315.521 263.726 315.079 263.531 314.641 263.364C320.525 258.298 328.355 251.609 330.665 249.732C328.157 251.563 319.247 257.842 312.782 262.548C312.397 262.371 312.038 262.189 311.68 262.008C317.66 256.87 326.526 249.264 329.028 247.244C326.349 249.186 316.328 256.261 309.846 261.024C309.514 260.838 309.239 260.669 308.938 260.504C314.844 255.407 324.755 246.936 327.397 244.783C324.573 246.832 313.488 254.666 307.081 259.389C306.775 259.198 306.531 259.05 306.287 258.903C312.005 253.975 322.952 244.587 325.765 242.321C322.535 244.687 308.538 254.532 303.042 258.713C302.778 258.759 302.492 258.837 302.206 258.915C296.35 260.437 287.418 266.122 287.418 266.122C264.967 276.804 223.509 270.151 162.333 285.048C104.002 299.253 100.255 314.122 100.034 315.495C100.017 315.552 100.026 315.605 100.026 315.605C99.9094 330.841 95.5272 331.614 92.4455 338.064C91.3737 340.322 90.5846 342.176 90.0564 343.657C89.0374 346.368 88.8121 347.714 88.8121 347.714C89.0137 360.744 95.808 366.705 102.629 369.422C109.623 372.19 116.637 371.525 116.637 371.525C116.524 371.191 116.437 370.852 116.323 370.518C112.848 358.529 114.22 346.392 119.168 336.02C117.487 342.386 117.142 349.225 118.361 356.141C122.881 381.774 147.315 398.86 172.922 394.345C198.529 389.83 215.641 365.391 211.126 339.784C209.776 332.129 206.653 325.221 202.231 319.441C205.396 322.258 208.256 325.51 210.639 329.146L219.416 346.352C223.125 353.646 231.179 357.643 239.23 356.223L403.589 327.242C415.811 325.087 423.992 313.437 421.832 301.188L419.597 288.517C416.13 268.85 429.263 250.094 448.93 246.626L474.616 242.097C494.283 238.629 513.039 251.762 516.507 271.429L520.245 292.627L522.251 304.005C582.353 295.367 574.365 265.038 574.365 265.038ZM307.016 285.885C307.016 285.885 283.944 289.953 239.395 286.92C194.873 283.883 157.537 295.203 157.537 295.203C202.98 275.213 307.016 285.885 307.016 285.885ZM102.686 315.408C106.027 313.05 115.245 307.287 139.553 297.258C139.553 297.258 113.252 310.959 104.966 318.3C104.236 318.946 103.111 318.899 102.417 318.205C101.621 317.393 101.767 316.06 102.686 315.408ZM106.429 323.513C105.687 324.243 104.519 324.258 103.768 323.547C102.918 322.744 102.971 321.346 103.881 320.641C107.228 318.01 116.51 311.528 141.194 299.772C141.22 299.767 114.639 315.424 106.429 323.513ZM170.264 378.809C153.184 381.82 136.912 370.427 133.901 353.347C130.889 336.267 142.283 319.995 159.363 316.983C176.443 313.971 192.715 325.365 195.727 342.445C198.738 359.525 187.344 375.797 170.264 378.809ZM245.293 333.025C240.311 331.943 233.638 317.251 231.078 311.224C230.415 309.626 230.588 307.827 231.562 306.403C232.383 305.196 233.711 304.391 235.181 304.24C235.556 304.201 235.93 304.163 236.383 304.11C235.439 304.467 234.599 305.105 233.99 305.974C233.016 307.398 232.844 309.198 233.507 310.796C236.071 316.849 242.745 331.541 247.721 332.597C248.71 332.803 250.358 332.73 252.453 332.416C249.22 333.067 246.622 333.308 245.293 333.025ZM257.191 328.722C257.832 328.5 258.469 328.252 258.548 328.238C258.68 328.214 255.61 328.402 255.61 328.402L255.494 328.205C256.183 327.947 257.896 327.318 258.002 327.3C258.134 327.276 255.28 327.453 255.09 327.459L254.978 327.288C255.668 327.031 257.381 326.402 257.46 326.388C257.565 326.37 254.822 326.554 254.548 326.548L254.437 326.377C255.126 326.119 256.812 325.495 256.918 325.477C257.024 325.458 254.359 325.628 254.038 325.658L253.921 325.461C254.637 325.198 256.302 324.605 256.381 324.591C256.487 324.573 253.901 324.729 253.5 324.773L253.384 324.575C254.1 324.313 255.738 323.725 255.844 323.706C255.949 323.688 253.417 323.835 252.99 323.883L252.873 323.686C253.589 323.423 255.227 322.835 255.333 322.816C255.439 322.798 252.963 322.962 252.479 322.993L252.362 322.796C253.078 322.533 254.69 321.95 254.796 321.931C254.901 321.913 252.453 322.072 251.968 322.103L251.852 321.906C252.594 321.639 254.18 321.06 254.285 321.041C254.391 321.023 251.995 321.173 251.457 321.213L251.341 321.016C252.083 320.749 253.669 320.17 253.748 320.156C253.854 320.137 251.484 320.283 250.947 320.323L250.83 320.126C251.52 319.869 253.233 319.24 253.338 319.221C253.47 319.198 250.537 319.389 250.427 319.381L250.391 319.333C251.107 319.07 252.771 318.477 252.851 318.463C252.956 318.445 250.371 318.601 249.97 318.645L249.93 318.57C250.646 318.308 252.258 317.724 252.363 317.706C252.469 317.687 250.073 317.837 249.535 317.878L249.495 317.803C250.237 317.536 251.796 316.962 251.876 316.948C251.981 316.929 249.722 317.082 249.101 317.11L249.056 317.009C249.824 316.738 251.304 316.177 251.384 316.163C251.489 316.145 249.335 316.28 248.661 316.317L248.616 316.216C249.385 315.944 250.817 315.42 250.922 315.401C251.028 315.382 248.953 315.503 248.227 315.55L248.151 315.427C248.946 315.151 250.325 314.635 250.404 314.621C250.51 314.603 248.545 314.731 247.766 314.787L247.69 314.664C248.485 314.388 249.811 313.882 249.916 313.864C250.022 313.845 248.137 313.96 247.331 314.02L247.25 313.871C248.045 313.595 249.35 313.12 249.429 313.106C249.535 313.087 247.702 313.192 246.896 313.253L246.825 313.157C247.567 312.89 249.1 312.32 249.205 312.301C249.311 312.283 247.052 312.436 246.431 312.464L246.386 312.363C247.154 312.091 248.634 311.531 248.713 311.517C248.819 311.498 246.665 311.633 245.991 311.67L245.977 311.591C246.746 311.32 248.178 310.795 248.283 310.776C248.389 310.758 246.314 310.878 245.614 310.92L245.538 310.798C246.333 310.521 247.712 310.006 247.791 309.992C247.897 309.973 245.932 310.102 245.153 310.158L245.077 310.035C245.872 309.759 247.198 309.253 247.304 309.234C247.409 309.216 245.524 309.33 244.718 309.391L244.637 309.242C245.433 308.965 246.737 308.49 246.816 308.476C246.922 308.458 245.089 308.563 244.284 308.623L244.203 308.474C244.993 308.172 246.25 307.732 246.329 307.718C246.434 307.7 244.686 307.818 243.849 307.856L243.732 307.659C244.501 307.387 245.498 307.021 245.577 307.007C245.656 306.993 244.335 307.063 243.45 307.137L243.333 306.94C244.124 306.637 245.354 306.203 245.433 306.189C245.539 306.17 243.843 306.279 242.979 306.322L242.782 305.976L246.425 305.333L260.258 328.208L257.196 328.748L257.191 328.722ZM263.544 326.622L263.508 326.574C264.303 326.297 265.629 325.791 265.709 325.777C265.814 325.759 263.929 325.873 263.123 325.934L262.966 325.662C263.761 325.386 265.088 324.88 265.167 324.866C265.272 324.847 263.414 324.957 262.608 325.018L262.451 324.746C263.246 324.47 264.546 323.968 264.651 323.95C264.757 323.931 262.898 324.041 262.092 324.101L261.936 323.83C262.731 323.553 264.035 323.078 264.114 323.064C264.22 323.046 262.387 323.151 261.582 323.212L261.425 322.94C262.215 322.637 263.498 322.193 263.603 322.175C263.709 322.156 261.903 322.257 261.071 322.322L260.914 322.05C261.704 321.747 262.987 321.303 263.066 321.289C263.172 321.271 261.397 321.393 260.56 321.432L260.403 321.16C261.194 320.857 262.476 320.414 262.556 320.4C262.661 320.381 260.886 320.503 260.049 320.542L259.888 320.244C260.678 319.941 261.935 319.502 262.014 319.488C262.119 319.469 260.371 319.587 259.534 319.626L259.372 319.328C260.163 319.025 261.419 318.586 261.498 318.572C261.604 318.553 259.882 318.666 259.018 318.71L258.857 318.411C259.647 318.109 260.877 317.674 260.957 317.66C261.062 317.642 259.34 317.755 258.503 317.793L258.346 317.522C259.141 317.245 260.468 316.739 260.547 316.725C260.652 316.707 258.767 316.821 257.988 316.877L257.907 316.728C258.697 316.425 259.98 315.981 260.086 315.963C260.191 315.944 258.39 316.071 257.553 316.11L257.472 315.961C258.263 315.658 259.519 315.219 259.598 315.205C259.704 315.186 257.982 315.299 257.118 315.343L257.033 315.167C257.823 314.865 259.027 314.435 259.106 314.421C259.212 314.402 257.542 314.506 256.679 314.549L256.567 314.378C257.358 314.076 258.539 313.677 258.619 313.663C258.698 313.649 257.108 313.739 256.249 313.808L256.132 313.611C256.928 313.335 258.052 312.919 258.131 312.905C258.21 312.891 256.678 312.998 255.814 313.041L255.698 312.844C256.493 312.568 257.564 312.161 257.644 312.147C257.723 312.133 256.243 312.231 255.353 312.279L255.232 312.055C256.027 311.779 257.072 311.377 257.151 311.363C257.231 311.349 255.804 311.437 254.914 311.485L254.793 311.262C255.588 310.985 256.585 310.619 256.664 310.605C256.743 310.591 255.369 310.67 254.479 310.718L254.363 310.521C255.153 310.218 256.357 309.788 256.436 309.774C256.541 309.756 254.872 309.859 254.009 309.903L253.897 309.732C254.687 309.429 255.869 309.03 255.948 309.016C256.028 309.002 254.437 309.092 253.579 309.162L253.462 308.965C254.257 308.689 255.382 308.273 255.461 308.259C255.54 308.245 254.007 308.352 253.144 308.395L253.028 308.198C253.823 307.921 254.894 307.515 254.973 307.501C255.053 307.487 253.573 307.584 252.683 307.632L252.593 307.431C253.388 307.154 254.433 306.752 254.512 306.738C254.591 306.724 253.164 306.813 252.275 306.861L252.154 306.637C252.949 306.361 253.946 305.994 254.025 305.98C254.104 305.966 252.73 306.045 251.84 306.093L251.714 305.843C252.483 305.572 253.48 305.205 253.559 305.191C253.638 305.178 252.317 305.247 251.432 305.322L251.27 305.023C251.986 304.761 252.728 304.494 252.808 304.48C252.887 304.466 251.865 304.538 251.028 304.576L250.983 304.475L254.415 303.87L267.706 325.834L263.535 326.569L263.544 326.622ZM271.361 323.256C271.256 323.275 271.172 323.263 271.093 323.277L270.86 322.882C271.628 322.611 272.551 322.285 272.63 322.271C272.709 322.257 271.472 322.339 270.582 322.387L270.349 321.992C271.118 321.721 272.04 321.395 272.119 321.381C272.198 321.367 270.961 321.449 270.071 321.497L269.838 321.102C270.607 320.831 271.503 320.51 271.582 320.496C271.661 320.482 270.45 320.559 269.56 320.607L269.327 320.213C270.096 319.941 270.992 319.62 271.045 319.61C271.124 319.596 269.939 319.669 269.05 319.717L268.817 319.323C269.559 319.056 270.455 318.734 270.534 318.721C270.613 318.707 269.429 318.779 268.539 318.827L268.301 318.407C269.044 318.14 269.913 317.823 269.992 317.809C270.072 317.795 268.913 317.863 268.028 317.938L267.791 317.517C268.533 317.25 269.402 316.933 269.455 316.924C269.534 316.91 268.402 316.973 267.517 317.048L267.28 316.627C268.022 316.36 268.865 316.048 268.944 316.034C269.024 316.02 267.892 316.083 267.033 316.153L266.8 315.759C267.569 315.487 268.465 315.166 268.544 315.152C268.623 315.138 267.412 315.215 266.522 315.263L266.365 314.992C267.108 314.725 268.004 314.403 268.056 314.394C268.136 314.38 266.951 314.453 266.088 314.496L265.926 314.198C266.668 313.931 267.512 313.619 267.591 313.605C267.67 313.591 266.538 313.655 265.679 313.724L265.518 313.426C266.26 313.159 267.055 312.883 267.134 312.869C267.214 312.855 266.139 312.936 265.276 312.979L265.083 312.659C265.799 312.397 266.594 312.12 266.647 312.111C266.726 312.097 265.678 312.173 264.841 312.212L264.648 311.892C265.364 311.63 266.107 311.363 266.159 311.353C266.239 311.339 265.243 311.406 264.406 311.445L264.209 311.098C264.899 310.841 265.619 310.605 265.672 310.595C265.751 310.581 264.809 310.639 263.95 310.709L263.753 310.362C264.416 310.109 265.11 309.878 265.189 309.864C265.268 309.85 264.352 309.903 263.52 309.968L263.318 309.595C263.986 309.368 264.649 309.115 264.702 309.106C264.781 309.092 263.891 309.14 263.085 309.201L262.888 308.854C263.604 308.592 264.399 308.316 264.478 308.302C264.557 308.288 263.509 308.364 262.646 308.407L262.453 308.087C263.169 307.825 263.938 307.553 263.991 307.544C264.07 307.53 263.048 307.601 262.211 307.64L262.019 307.32C262.708 307.062 263.45 306.795 263.503 306.786C263.582 306.772 262.613 306.834 261.776 306.873L261.579 306.526C262.269 306.269 262.963 306.038 263.016 306.028C263.095 306.014 262.152 306.072 261.346 306.132L261.145 305.759C261.812 305.533 262.475 305.28 262.555 305.266C262.634 305.252 261.744 305.3 260.938 305.36L260.736 304.988C261.378 304.766 262.041 304.513 262.093 304.503C262.173 304.489 261.309 304.533 260.53 304.588L260.297 304.194C260.938 303.972 261.553 303.755 261.606 303.745L263.243 303.457L274.801 322.541L271.343 323.151L271.361 323.256ZM233.916 293.821C192.974 291.023 158.635 301.433 158.635 301.433C200.418 283.069 296.082 292.876 296.082 292.876C296.082 292.876 274.884 296.614 233.916 293.821ZM312.745 335.666C303.649 313.562 313.842 280.598 313.842 280.598C313.842 280.598 306.148 273.245 304.749 273.029L310.523 273.97L310.931 274.28C310.931 274.28 311.027 274.208 311.193 274.07L311.979 274.204C311.31 274.73 310.859 275.109 310.703 275.3L312.567 276.767C312.567 276.767 313.49 275.979 314.981 274.709L319.748 275.501C305.203 305.857 312.745 335.666 312.745 335.666ZM393.32 312.694C395.78 312.288 398.191 313.768 398.915 316.172C398.933 316.277 398.974 316.352 398.992 316.457C399.728 319.24 397.991 322.05 395.154 322.632L382.952 325.056C382.253 326.187 381.119 327.013 379.698 327.29L347.512 333.701C345.594 334.093 343.719 332.872 343.247 330.968C342.583 328.282 342.532 324.752 346.121 323.494C347.324 323.064 349.967 322.461 353.332 321.786C345.614 317.84 339.793 310.455 338.173 301.268C335.427 285.693 345.82 270.85 361.396 268.103C376.971 265.357 391.819 275.777 394.565 291.352C395.99 299.43 393.891 307.286 389.36 313.392C390.839 313.132 392.185 312.894 393.32 312.694ZM427.651 242.185L426.786 242.528C426.882 242.457 427.163 242.353 427.651 242.185L463.413 227.958L454.608 221.399L479.143 225.783C479.148 225.81 434.511 239.723 427.651 242.185ZM563.757 257.981C562.046 278.534 523.407 279.222 523.407 279.222C558.332 273.064 563.757 257.981 563.757 257.981ZM567.348 263.063C565.53 284.86 524.533 285.611 524.533 285.611C561.597 279.075 567.348 263.063 567.348 263.063ZM525.506 291.128C565.447 284.085 571.632 266.827 571.632 266.827C569.68 290.335 525.506 291.128 525.506 291.128Z" fill="#FEB948"/>
<path d="M394.566 291.352C391.819 275.777 376.976 265.383 361.4 268.13C345.825 270.876 335.432 285.72 338.178 301.295C339.798 310.482 345.618 317.866 353.337 321.813C355.096 321.448 357.072 321.073 359.126 320.683C359.612 319.89 360.395 319.235 361.577 318.836C362.038 318.673 362.763 318.463 363.625 318.257C354.244 317.08 346.32 309.958 344.593 300.164C342.475 288.152 350.494 276.667 362.532 274.545C374.543 272.427 386.028 280.445 388.151 292.483C389.813 301.908 385.235 310.989 377.376 315.506C381.568 314.739 385.845 313.985 389.361 313.392C393.891 307.286 395.985 299.404 394.566 291.352Z" fill="white"/>
<path d="M233.507 310.796C232.844 309.198 233.017 307.398 233.991 305.975C234.573 305.11 235.413 304.472 236.384 304.11C235.957 304.158 235.556 304.201 235.182 304.24C233.711 304.391 232.41 305.192 231.562 306.403C230.588 307.827 230.415 309.626 231.078 311.224C233.643 317.278 240.316 331.97 245.293 333.025C246.622 333.308 249.22 333.067 252.427 332.42C250.332 332.735 248.684 332.808 247.695 332.601C242.74 331.515 236.067 316.823 233.507 310.796Z" fill="#2C3E50"/>
<path d="M242.756 305.98L242.953 306.327C243.816 306.283 245.512 306.175 245.406 306.193C245.327 306.207 244.097 306.642 243.307 306.945L243.423 307.142C244.313 307.094 245.656 306.993 245.551 307.012C245.471 307.026 244.501 307.387 243.706 307.664L243.822 307.861C244.655 307.796 246.408 307.704 246.302 307.723C246.223 307.737 244.971 308.203 244.176 308.479L244.257 308.628C245.063 308.568 246.895 308.462 246.79 308.481C246.71 308.495 245.406 308.97 244.611 309.246L244.692 309.395C245.471 309.339 247.383 309.22 247.277 309.239C247.198 309.253 245.841 309.737 245.05 310.04L245.126 310.162C245.879 310.111 247.87 309.978 247.765 309.997C247.685 310.011 246.28 310.531 245.511 310.802L245.587 310.925C246.314 310.878 248.362 310.762 248.257 310.781C248.178 310.795 246.719 311.324 245.951 311.596L246.022 311.692C246.696 311.655 248.85 311.52 248.744 311.539C248.639 311.557 247.154 312.091 246.416 312.385L246.461 312.486C247.083 312.458 249.342 312.304 249.236 312.323C249.131 312.342 247.598 312.911 246.856 313.178L246.927 313.275C247.733 313.214 249.565 313.109 249.46 313.127C249.381 313.141 248.076 313.616 247.281 313.893L247.362 314.042C248.141 313.986 250.053 313.867 249.947 313.885C249.868 313.899 248.511 314.383 247.72 314.686L247.797 314.809C248.55 314.758 250.54 314.624 250.435 314.643C250.356 314.657 248.95 315.177 248.182 315.449L248.258 315.571C248.984 315.525 251.033 315.409 250.953 315.423C250.874 315.437 249.416 315.966 248.647 316.238L248.692 316.339C249.366 316.301 251.52 316.167 251.414 316.185C251.309 316.204 249.824 316.738 249.087 317.031L249.132 317.132C249.753 317.104 252.012 316.951 251.907 316.969C251.801 316.988 250.268 317.558 249.526 317.825L249.566 317.899C250.077 317.864 252.5 317.709 252.394 317.727C252.288 317.746 250.703 318.325 249.961 318.592L250.001 318.666C250.406 318.649 252.987 318.466 252.882 318.485C252.776 318.504 251.116 319.123 250.422 319.354L250.457 319.402C250.563 319.384 253.501 319.22 253.369 319.243C253.263 319.262 251.551 319.89 250.861 320.148L250.978 320.345C251.541 320.3 253.911 320.155 253.779 320.178C253.673 320.196 252.088 320.775 251.372 321.038L251.488 321.235C252.026 321.195 254.422 321.044 254.316 321.063C254.21 321.082 252.625 321.661 251.883 321.928L251.999 322.125C252.51 322.089 254.959 321.93 254.827 321.953C254.721 321.971 253.109 322.555 252.393 322.817L252.51 323.015C252.968 322.988 255.47 322.819 255.364 322.838C255.258 322.857 253.646 323.44 252.904 323.707L253.021 323.904C253.452 323.883 256.007 323.705 255.875 323.728C255.769 323.746 254.131 324.335 253.415 324.597L253.531 324.794C253.91 324.782 256.517 324.594 256.412 324.613C256.306 324.632 254.646 325.251 253.952 325.482L254.068 325.68C254.416 325.645 257.081 325.475 256.949 325.498C256.843 325.517 255.157 326.141 254.467 326.399L254.579 326.569C254.848 326.549 257.596 326.391 257.491 326.41C257.385 326.428 255.699 327.052 255.009 327.31L255.121 327.481C255.31 327.475 258.165 327.298 258.033 327.321C257.927 327.34 256.214 327.969 255.525 328.226L255.641 328.424C255.641 328.424 258.685 328.241 258.579 328.259C258.526 328.269 257.885 328.491 257.222 328.744L260.284 328.204L246.452 305.329L242.756 305.98Z" fill="#2C3E50"/>
<path d="M250.914 304.542L250.959 304.643C251.822 304.6 252.817 304.533 252.738 304.547C252.685 304.556 251.917 304.828 251.201 305.09L251.362 305.388C252.252 305.34 253.569 305.244 253.49 305.258C253.41 305.272 252.44 305.634 251.645 305.91L251.771 306.16C252.66 306.112 254.035 306.033 253.955 306.047C253.876 306.061 252.853 306.432 252.084 306.704L252.205 306.927C253.095 306.879 254.522 306.791 254.443 306.805C254.364 306.819 253.314 307.195 252.523 307.497L252.645 307.721C253.534 307.673 255.014 307.575 254.935 307.589C254.856 307.603 253.753 307.988 252.989 308.286L253.106 308.483C253.995 308.435 255.528 308.329 255.422 308.347C255.343 308.361 254.219 308.777 253.424 309.053L253.54 309.251C254.404 309.207 256.016 309.086 255.91 309.105C255.831 309.119 254.654 309.544 253.859 309.821L253.97 309.991C254.834 309.948 256.503 309.844 256.397 309.863C256.318 309.877 255.115 310.307 254.324 310.609L254.441 310.807C255.33 310.759 256.705 310.68 256.626 310.694C256.546 310.708 255.523 311.079 254.754 311.35L254.875 311.574C255.765 311.526 257.192 311.438 257.113 311.451C257.034 311.465 255.984 311.841 255.194 312.144L255.315 312.367C256.205 312.319 257.684 312.222 257.605 312.236C257.526 312.25 256.423 312.635 255.659 312.933L255.776 313.13C256.666 313.082 258.198 312.975 258.093 312.994C258.013 313.008 256.889 313.424 256.094 313.7L256.211 313.897C257.074 313.854 258.686 313.733 258.58 313.751C258.501 313.765 257.324 314.191 256.529 314.467L256.641 314.638C257.504 314.594 259.173 314.491 259.068 314.509C258.988 314.523 257.785 314.953 256.994 315.256L257.08 315.431C257.917 315.393 259.639 315.28 259.56 315.294C259.481 315.307 258.229 315.773 257.434 316.049L257.515 316.199C258.347 316.133 260.126 316.037 260.047 316.051C259.968 316.065 258.664 316.54 257.869 316.817L257.949 316.966C258.755 316.905 260.614 316.795 260.508 316.814C260.429 316.828 259.098 317.307 258.308 317.61L258.465 317.882C259.328 317.839 261.024 317.73 260.918 317.749C260.839 317.763 259.609 318.197 258.819 318.5L258.98 318.798C259.817 318.759 261.539 318.646 261.46 318.66C261.381 318.674 260.129 319.14 259.334 319.416L259.495 319.714C260.328 319.649 262.081 319.558 261.975 319.577C261.896 319.591 260.645 320.056 259.849 320.332L260.011 320.631C260.843 320.566 262.596 320.474 262.517 320.488C262.438 320.502 261.16 320.972 260.365 321.249L260.522 321.52C261.354 321.455 263.134 321.359 263.028 321.378C262.949 321.392 261.671 321.862 260.876 322.139L261.032 322.41C261.865 322.345 263.644 322.249 263.565 322.263C263.486 322.277 262.181 322.752 261.386 323.028L261.543 323.3C262.349 323.24 264.181 323.134 264.076 323.153C263.997 323.167 262.692 323.642 261.897 323.918L262.054 324.19C262.86 324.13 264.692 324.024 264.613 324.038C264.534 324.052 263.203 324.532 262.413 324.834L262.569 325.106C263.375 325.046 265.234 324.936 265.128 324.954C265.049 324.968 263.718 325.448 262.928 325.751L263.085 326.022C263.891 325.962 265.749 325.852 265.67 325.866C265.591 325.88 264.234 326.364 263.47 326.662L263.505 326.71L267.676 325.975L254.425 303.923L250.914 304.542Z" fill="#2C3E50"/>
<path d="M261.541 303.839C261.488 303.848 260.873 304.065 260.231 304.287L260.464 304.682C261.27 304.621 262.107 304.582 262.028 304.596C261.975 304.606 261.334 304.828 260.671 305.081L260.873 305.453C261.679 305.393 262.568 305.345 262.489 305.359C262.436 305.368 261.742 305.599 261.079 305.852L261.281 306.225C262.113 306.16 263.029 306.107 262.95 306.121C262.897 306.131 262.182 306.393 261.514 306.62L261.711 306.966C262.543 306.901 263.517 306.865 263.438 306.879C263.385 306.889 262.643 307.156 261.953 307.413L262.146 307.733C263.009 307.69 264.004 307.623 263.925 307.637C263.872 307.646 263.104 307.918 262.388 308.18L262.58 308.5C263.444 308.457 264.492 308.381 264.413 308.395C264.333 308.409 263.538 308.685 262.822 308.948L263.02 309.294C263.826 309.233 264.689 309.19 264.636 309.199C264.583 309.209 263.916 309.435 263.253 309.688L263.454 310.061C264.287 309.996 265.176 309.948 265.124 309.957C265.071 309.966 264.381 310.224 263.687 310.455L263.884 310.802C264.717 310.737 265.659 310.679 265.606 310.689C265.554 310.698 264.838 310.96 264.144 311.192L264.341 311.538C265.173 311.473 266.173 311.433 266.094 311.446C266.041 311.456 265.272 311.727 264.583 311.985L264.775 312.305C265.639 312.262 266.661 312.19 266.581 312.204C266.502 312.218 265.734 312.49 265.018 312.752L265.21 313.072C266.074 313.029 267.148 312.948 267.069 312.962C266.99 312.976 266.195 313.252 265.452 313.519L265.614 313.818C266.504 313.77 267.605 313.684 267.525 313.698C267.446 313.712 266.603 314.024 265.861 314.291L266.022 314.589C266.912 314.541 268.07 314.473 267.991 314.487C267.912 314.501 267.042 314.818 266.3 315.085L266.457 315.357C267.347 315.309 268.558 315.231 268.479 315.245C268.399 315.259 267.503 315.58 266.735 315.852L266.968 316.246C267.857 316.198 268.958 316.113 268.879 316.127C268.8 316.141 267.957 316.453 267.214 316.72L267.452 317.141C268.342 317.093 269.469 317.003 269.39 317.017C269.311 317.031 268.467 317.343 267.725 317.61L267.963 318.031C268.852 317.983 270.006 317.888 269.927 317.902C269.848 317.916 268.978 318.233 268.236 318.5L268.473 318.921C269.363 318.873 270.548 318.8 270.469 318.814C270.39 318.828 269.52 319.144 268.751 319.416L268.984 319.81C269.874 319.762 271.059 319.69 270.98 319.704C270.9 319.718 270.004 320.039 269.262 320.306L269.495 320.7C270.385 320.652 271.596 320.575 271.517 320.589C271.437 320.603 270.541 320.924 269.773 321.196L270.006 321.59C270.895 321.542 272.133 321.46 272.054 321.474C271.975 321.488 271.052 321.814 270.284 322.085L270.516 322.48C271.406 322.432 272.67 322.345 272.565 322.364C272.485 322.378 271.563 322.704 270.794 322.975L271.027 323.37C271.106 323.356 271.217 323.364 271.296 323.35L274.675 322.754L263.117 303.669L261.559 303.944L261.541 303.839Z" fill="#2C3E50"/>
<path d="M377.371 315.479C385.23 310.963 389.808 301.881 388.146 292.457C386.028 280.445 374.565 272.396 362.527 274.518C350.516 276.636 342.466 288.1 344.588 300.137C346.315 309.931 354.245 317.08 363.62 318.23C362.732 318.441 362.033 318.646 361.572 318.809C360.39 319.208 359.608 319.863 359.121 320.657C357.067 321.046 355.118 321.417 353.332 321.787C349.967 322.462 347.324 323.064 346.121 323.494C342.532 324.752 342.583 328.282 343.247 330.969C343.719 332.872 345.59 334.067 347.512 333.701L379.699 327.29C381.093 327.017 382.248 326.16 382.952 325.056L395.155 322.632C397.97 322.082 399.728 319.24 398.992 316.457C398.974 316.352 398.933 316.277 398.915 316.172C398.218 313.763 395.807 312.283 393.32 312.694C392.185 312.894 390.861 313.101 389.356 313.366C385.845 313.985 381.564 314.713 377.371 315.479ZM377.962 318.369L378.134 319.346L343.869 325.388L377.962 318.369ZM378.311 320.349L378.484 321.326L344.218 327.368L378.311 320.349ZM377.847 323.425L344.378 328.428L378.811 321.948C378.811 321.948 379.064 324.925 381.089 325.603C381.12 325.624 379.273 325.65 377.847 323.425ZM381.832 325.499C381.04 325.638 380.101 324.171 379.757 322.217C379.412 320.264 379.767 318.568 380.585 318.424C381.377 318.284 382.316 319.752 382.661 321.705C383.005 323.659 382.651 325.354 381.832 325.499ZM381.526 318.203L393.741 315.696L393.913 316.673L382.166 318.744C381.996 318.556 381.774 318.377 381.526 318.203ZM396.041 313.766C396.833 313.626 397.772 315.094 398.117 317.047C398.461 319.001 398.107 320.696 397.288 320.841C396.496 320.98 395.557 319.513 395.213 317.559C394.895 315.601 395.249 313.906 396.041 313.766ZM394.267 317.291C394.267 317.291 394.52 320.267 396.545 320.945C396.545 320.945 394.694 320.944 393.298 318.741L383.22 320.246C383.089 319.969 382.933 319.697 382.776 319.426L394.267 317.291ZM393.418 313.711L393.59 314.688L378.781 317.299C378.481 317.298 378.16 317.327 377.869 317.378C374.406 317.962 368.99 318.89 363.53 319.88L393.418 313.711Z" fill="#2C3E50"/>
<path d="M397.289 320.841C398.08 320.701 398.461 319.001 398.117 317.047C397.772 315.094 396.859 313.622 396.041 313.766C395.249 313.905 394.868 315.606 395.213 317.559C395.584 319.508 396.497 320.98 397.289 320.841Z" fill="white"/>
<path d="M383.224 320.272L393.303 318.767C394.725 320.966 396.549 320.971 396.549 320.971C394.524 320.294 394.272 317.317 394.272 317.317L382.785 319.478C382.964 319.719 383.094 319.996 383.224 320.272Z" fill="white"/>
<path d="M393.767 315.691L381.552 318.199C381.769 318.351 381.991 318.53 382.192 318.739L393.939 316.668L393.767 315.691Z" fill="white"/>
<path d="M377.869 317.378C378.186 317.322 378.481 317.298 378.781 317.299L393.59 314.688L393.418 313.711L363.53 319.879C368.964 318.894 374.406 317.962 377.869 317.378Z" fill="white"/>
<path d="M381.832 325.499C382.634 325.357 383.005 323.659 382.66 321.705C382.316 319.752 381.386 318.282 380.584 318.424C379.783 318.565 379.412 320.264 379.756 322.217C380.101 324.171 381.03 325.64 381.832 325.499Z" fill="white"/>
<path d="M378.816 321.975L344.383 328.455L377.851 323.451C379.273 325.65 381.098 325.655 381.098 325.655C379.069 324.952 378.816 321.975 378.816 321.975Z" fill="white"/>
<path d="M378.312 320.349L344.223 327.394L378.488 321.352L378.312 320.349Z" fill="white"/>
<path d="M377.962 318.369L343.873 325.414L378.139 319.372L377.962 318.369Z" fill="white"/>
<path d="M159.363 316.983C142.283 319.995 130.889 336.267 133.901 353.347C136.913 370.427 153.185 381.82 170.265 378.809C187.345 375.797 198.738 359.525 195.727 342.445C192.715 325.365 176.443 313.971 159.363 316.983ZM168.705 369.965C156.509 372.116 144.895 363.983 142.745 351.787C140.594 339.591 148.726 327.977 160.922 325.827C173.119 323.676 184.733 331.808 186.883 344.004C189.034 356.201 180.902 367.815 168.705 369.965Z" fill="white"/>
<path d="M160.922 325.827C148.726 327.977 140.594 339.591 142.744 351.787C144.895 363.984 156.509 372.116 168.705 369.965C180.901 367.815 189.033 356.201 186.883 344.004C184.737 331.835 173.118 323.676 160.922 325.827ZM167.397 362.547C159.319 363.972 151.591 358.584 150.162 350.479C148.733 342.375 154.126 334.674 162.23 333.245C170.308 331.82 178.036 337.208 179.465 345.312C180.894 353.417 175.501 361.118 167.397 362.547Z" fill="#FEB948"/>
<path d="M176.995 356.433C181.708 349.702 180.072 340.426 173.342 335.713C166.611 331 157.334 332.636 152.622 339.366C147.909 346.097 149.545 355.374 156.275 360.086C163.006 364.799 172.282 363.163 176.995 356.433Z" fill="#2C3E50"/>
<path d="M463.124 247.471C437.491 251.991 420.405 276.425 424.92 302.032C429.435 327.639 453.875 344.751 479.481 340.236C505.115 335.716 522.201 311.282 517.685 285.675C513.17 260.068 488.731 242.956 463.124 247.471ZM476.754 324.766C459.674 327.778 443.402 316.384 440.39 299.304C437.378 282.224 448.772 265.952 465.852 262.941C482.932 259.929 499.204 271.323 502.216 288.403C505.227 305.483 493.807 321.759 476.754 324.766Z" fill="#FEB948"/>
<path d="M465.852 262.941C448.772 265.952 437.378 282.224 440.39 299.304C443.402 316.384 459.674 327.778 476.754 324.767C493.834 321.755 505.227 305.483 502.216 288.403C499.204 271.323 482.906 259.934 465.852 262.941ZM475.194 315.923C462.998 318.074 451.384 309.941 449.234 297.745C447.083 285.549 455.215 273.935 467.411 271.784C479.608 269.634 491.222 277.766 493.372 289.962C495.523 302.158 487.364 313.777 475.194 315.923Z" fill="white"/>
<path d="M467.412 271.784C455.215 273.935 447.083 285.549 449.234 297.745C451.384 309.941 462.998 318.074 475.194 315.923C487.391 313.772 495.523 302.158 493.372 289.962C491.226 277.792 479.581 269.638 467.412 271.784ZM473.886 308.505C465.808 309.929 458.081 304.541 456.652 296.437C455.223 288.333 460.615 280.631 468.72 279.202C476.824 277.773 484.525 283.166 485.954 291.27C487.383 299.375 481.964 307.081 473.886 308.505Z" fill="#FEB948"/>
<path d="M476.638 307.756C484.308 304.809 488.138 296.203 485.192 288.533C482.246 280.863 473.64 277.033 465.969 279.979C458.299 282.925 454.469 291.531 457.415 299.202C460.361 306.872 468.968 310.702 476.638 307.756Z" fill="#2C3E50"/>
<path d="M239.395 286.921C283.917 289.958 307.016 285.885 307.016 285.885C307.016 285.885 202.98 275.213 157.558 295.172C157.532 295.176 194.873 283.883 239.395 286.921Z" fill="#2C3E50"/>
<path d="M158.635 301.433C158.635 301.433 192.948 291.028 233.916 293.821C274.857 296.618 296.082 292.876 296.082 292.876C296.082 292.876 200.418 283.069 158.635 301.433Z" fill="#2C3E50"/>
<path d="M314.976 274.682C313.485 275.952 312.563 276.741 312.563 276.741L310.698 275.273C310.855 275.082 311.305 274.704 311.975 274.177L311.189 274.044C311.023 274.182 310.926 274.253 310.926 274.253L310.518 273.944L304.745 273.002C306.144 273.218 313.837 280.572 313.837 280.572C313.837 280.572 303.649 313.562 312.741 335.64C312.741 335.64 305.198 305.831 319.738 275.449L314.976 274.682Z" fill="#2C3E50"/>
<path d="M103.903 320.61C102.971 321.346 102.914 322.717 103.789 323.516C104.541 324.227 105.709 324.212 106.451 323.482C114.66 315.393 141.242 299.736 141.242 299.736C116.506 311.502 107.255 318.005 103.903 320.61Z" fill="#2C3E50"/>
<path d="M104.966 318.3C113.253 310.959 139.553 297.258 139.553 297.258C115.246 307.287 106.032 313.076 102.687 315.408C101.767 316.06 101.621 317.393 102.418 318.205C103.116 318.926 104.241 318.972 104.966 318.3Z" fill="#2C3E50"/>
<path d="M427.651 242.185C427.163 242.353 426.887 242.483 426.786 242.528L427.651 242.185Z" fill="#2C3E50"/>
<path d="M463.413 227.958L427.651 242.185C434.512 239.723 479.148 225.81 479.148 225.81L454.613 221.426L463.413 227.958Z" fill="#2C3E50"/>
<path d="M525.506 291.128C525.506 291.128 569.679 290.335 571.632 266.827C571.636 266.853 565.447 284.085 525.506 291.128Z" fill="#2C3E50"/>
<path d="M567.348 263.064C567.348 263.064 561.597 279.075 524.534 285.611C524.534 285.611 565.53 284.86 567.348 263.064Z" fill="#2C3E50"/>
<path d="M563.757 257.981C563.757 257.981 558.333 273.064 523.407 279.222C523.407 279.222 562.046 278.534 563.757 257.981Z" fill="#2C3E50"/>
<path d="M326.483 241.759C326.434 241.795 326.194 241.974 325.809 242.259C326.295 241.928 326.535 241.75 326.483 241.759Z" fill="#2A2C2E"/>
<path d="M328.119 244.247C328.071 244.283 327.83 244.461 327.445 244.747C327.926 244.39 328.167 244.211 328.119 244.247Z" fill="#2A2C2E"/>
<path d="M329.75 246.709C329.702 246.744 329.461 246.923 329.076 247.209C329.562 246.878 329.798 246.673 329.75 246.709Z" fill="#2A2C2E"/>
<path d="M331.356 249.175C331.308 249.211 331.067 249.389 330.682 249.675C331.195 249.339 331.435 249.161 331.356 249.175Z" fill="#2A2C2E"/>
<path d="M332.992 251.663C332.944 251.698 332.703 251.877 332.318 252.163C332.826 251.801 333.067 251.622 332.992 251.663Z" fill="#2A2C2E"/>
<path d="M334.624 254.124C334.576 254.16 334.335 254.338 333.95 254.624C334.462 254.289 334.698 254.084 334.624 254.124Z" fill="#2A2C2E"/>
<path d="M336.256 256.585C336.208 256.621 335.967 256.8 335.582 257.085C336.094 256.75 336.335 256.572 336.256 256.585Z" fill="#2A2C2E"/>
</g>
<defs>
<clipPath id="clip0">
<rect width="667" height="1068.67" fill="white"/>
</clipPath>
</defs>
</svg>
