<svg width="192" height="48" viewBox="0 0 192 48" fill="none" xmlns="http://www.w3.org/2000/svg">
<g clip-path="url(#clip0)">
<path d="M48.1093 24C48.1093 37.2541 37.34 48 24.0525 48C10.7694 48 0 37.2585 0 24C0 10.7459 10.7694 0 24.0525 0C37.34 0 48.1093 10.7459 48.1093 24Z" fill="#00AED9"/>
<path d="M24.0525 12.1627C22.4888 12.1627 21.0546 12.2563 19.9555 12.4084C19.0932 12.5176 18.4096 12.7048 18.1237 12.8375L18.2309 12.8843C18.5035 12.9935 18.9547 13.1027 19.5266 13.2041C20.6659 13.3952 22.2788 13.5161 24.057 13.5161C25.6162 13.5161 27.0504 13.4225 28.1495 13.2704C29.0118 13.1612 29.6954 12.9701 29.9858 12.8375L29.8741 12.7906C29.6015 12.6853 29.1503 12.5722 28.5829 12.4747C27.4391 12.2875 25.8307 12.1627 24.0525 12.1627ZM24.0525 14.3469C22.4485 14.3469 20.9831 14.2533 19.8215 14.0934C18.6554 13.9178 17.8243 13.7462 17.3284 13.364C17.1855 13.2509 17.0469 13.0676 17.0425 12.8375C17.0425 12.6073 17.1855 12.4279 17.3284 12.3187C17.4759 12.1978 17.6456 12.112 17.8333 12.034C18.2265 11.8819 18.7313 11.761 19.3434 11.6595C20.5631 11.4567 22.2207 11.3358 24.0525 11.3358C25.652 11.3358 27.1174 11.4294 28.2791 11.5854C29.4496 11.761 30.2762 11.9365 30.7766 12.3187C30.9195 12.4279 31.067 12.6073 31.067 12.8375C31.067 13.0676 30.9195 13.247 30.7766 13.364C30.6291 13.481 30.4638 13.5668 30.2717 13.6448C29.8785 13.7969 29.3781 13.9178 28.7616 14.0232C27.5374 14.2221 25.8843 14.3469 24.0525 14.3469Z" fill="#FEB948"/>
<path d="M34.4068 24.4646C33.9544 23.9114 33.1573 22.5699 33.0754 22.387C33.1271 22.3739 33.1831 22.3609 33.1831 22.3609C33.1831 22.3609 35.7296 22.2259 35.2729 21.3373C35.2729 21.3373 34.7774 20.2615 32.9073 20.2615C32.8298 20.2615 32.7479 20.2615 32.6617 20.2703L32.6574 20.2659C32.5669 20.2659 32.4506 20.3051 32.3989 20.9541C30.852 18.0446 29.7748 17.4436 29.7748 17.4436C29.5723 17.326 29.4301 17.2476 28.9001 17.143C28.3659 17.0429 24.3156 17.0037 23.9795 17.0037H23.9666C23.9622 17.0037 23.9536 17.0037 23.9536 17.0037C23.6175 17.0037 19.5673 17.0429 19.033 17.143C18.503 17.2476 18.3608 17.326 18.1583 17.4436C18.1583 17.4436 17.0811 18.0446 15.5385 20.9541C15.4825 20.3051 15.3705 20.2659 15.2757 20.2659L15.2714 20.2703C15.1852 20.2615 15.1033 20.2615 15.0215 20.2615C13.1557 20.2615 12.6602 21.3373 12.6602 21.3373C12.1992 22.2259 14.75 22.3609 14.75 22.3609C14.75 22.3609 14.806 22.3739 14.862 22.387C14.7802 22.5699 13.9787 23.9158 13.5306 24.4646C13.4487 24.5647 12.9748 25.1135 12.8067 25.536C12.7766 25.6231 12.5956 26.0804 12.6085 26.7555L12.6045 34.1467C12.6045 34.3645 12.7424 34.5387 12.9147 34.5387H15.8405C16.0128 34.5387 16.155 34.3645 16.155 34.1467V33.6531H31.7772V34.1467C31.7772 34.3645 31.9194 34.5387 32.0918 34.5387H35.0175C35.1898 34.5387 35.3277 34.3645 35.3277 34.1467L35.3246 26.7555C35.3418 26.0804 35.1652 25.6188 35.1307 25.536C34.9583 25.1135 34.4887 24.5647 34.4068 24.4646ZM16.6179 21.5537C16.6179 21.5537 17.7274 19.0769 18.615 17.9967C18.615 17.9967 20.2381 17.927 22.4571 17.9052L22.3882 18.0795V18.5092C22.3882 18.6573 22.5088 18.7749 22.651 18.7749H25.301C25.4475 18.7749 25.5638 18.6573 25.5638 18.5092V18.0795L25.4949 17.9052C27.7096 17.927 29.3181 17.9967 29.3181 17.9967C30.2057 19.0769 31.3369 21.5537 31.3369 21.5537C31.4963 21.9631 31.1559 21.9631 31.1559 21.9631C26.3702 21.9631 21.5846 21.9631 16.7989 21.9631C16.7989 21.9631 16.4585 21.9631 16.6179 21.5537ZM13.8969 27.766C13.341 27.6266 13.2764 27.2782 13.2764 27.2782C13.173 26.5073 13.453 25.793 13.453 25.793C13.6383 25.3008 14.1209 25.2398 14.4829 25.2529C14.9008 25.266 16.1461 26.063 16.1461 26.063C17.0983 26.5595 17.2319 28.2669 17.2319 28.2669C16.0642 28.1754 14.457 27.9054 13.8969 27.766ZM29.6542 28.3583C27.9393 28.5021 25.4746 28.5151 23.9666 28.5151C22.4628 28.5151 19.9981 28.5021 18.2875 28.3583C18.2875 28.3583 17.7963 27.3087 18.5374 27.2869C18.6409 27.2825 20.8513 27.2041 23.9666 27.1998C27.0818 27.2041 29.2966 27.2825 29.3957 27.2869C30.1411 27.3087 29.6542 28.3583 29.6542 28.3583ZM34.661 27.2782C34.661 27.2782 34.5964 27.6223 34.0363 27.766C33.4804 27.9054 31.8732 28.1754 30.7099 28.2669C30.7099 28.2669 30.8434 26.5595 31.7957 26.063C31.7957 26.063 33.0366 25.266 33.4589 25.2529C33.8208 25.2398 34.3034 25.3008 34.4844 25.793C34.4801 25.793 34.7601 26.5116 34.661 27.2782Z" fill="white"/>
</g>
<g clip-path="url(#clip1)">
<path fill-rule="evenodd" clip-rule="evenodd" d="M72.6596 32.2882C73.5488 31.8158 74.3382 31.2263 75.0322 30.5154L75.2968 30.2424L76.4159 31.313L76.134 31.5947C75.7349 31.9891 75.3142 32.3619 74.8631 32.7086C74.4033 33.0641 73.8958 33.3675 73.3492 33.6275C72.8027 33.8833 72.2128 34.087 71.5795 34.2387C70.9419 34.3904 70.2565 34.4684 69.5191 34.4684C68.335 34.4727 67.2245 34.2387 66.2052 33.7792C65.1945 33.3198 64.314 32.7 63.5723 31.9198C62.8262 31.1353 62.2493 30.2164 61.8416 29.1675C61.4338 28.1142 61.23 26.9873 61.23 25.791V25.7433C61.23 24.5643 61.4338 23.4417 61.8459 22.3885C62.2537 21.3396 62.8306 20.412 63.5723 19.6188C64.314 18.8213 65.1945 18.1885 66.2182 17.7204C67.2462 17.2522 68.3697 17.0182 69.5712 17.0182C70.3433 17.0182 71.0503 17.0832 71.6749 17.2132C72.2909 17.3476 72.8591 17.5383 73.3796 17.781C73.8958 18.0238 74.3686 18.3098 74.798 18.6306C75.2144 18.9427 75.6308 19.2894 76.0385 19.6665L76.3292 19.9396L75.2317 21.0838L74.9498 20.8151C74.6245 20.503 74.2775 20.2083 73.9088 19.9222C73.5574 19.6492 73.1627 19.4064 72.7246 19.194C72.2909 18.986 71.8137 18.8213 71.2932 18.6913C70.7814 18.5699 70.2001 18.5092 69.5495 18.5092C68.5692 18.5092 67.68 18.6999 66.8645 19.0727C66.0404 19.4541 65.3333 19.9656 64.7304 20.6201C64.1232 21.2745 63.6504 22.0374 63.3077 22.9173C62.965 23.7928 62.7959 24.7247 62.7959 25.7216V25.765C62.7959 26.7705 62.965 27.6981 63.312 28.5736C63.6547 29.4535 64.1318 30.212 64.7434 30.8665C65.355 31.521 66.0664 32.0368 66.8992 32.4139C67.7234 32.791 68.6082 32.9774 69.5712 32.9774C70.7814 32.9774 71.805 32.7433 72.6596 32.2882ZM79.4826 34.1953L87.4985 17.1786H88.7304L96.7549 34.1953H95.1587L93.0593 29.7916H91.0683L92.053 27.6808L88.0971 19.4021L81.1526 34.1953H79.4826ZM110.379 26.7575C109.924 26.9222 109.447 27.0523 108.935 27.1303L114.37 34.191H112.392L107.139 27.308H102.008V34.1953H100.442V17.2956H107.486C108.549 17.2956 109.494 17.4343 110.323 17.7204C111.143 18.0064 111.832 18.4182 112.375 18.96C112.778 19.3804 113.095 19.8659 113.32 20.4163C113.55 20.9755 113.663 21.578 113.663 22.2238V22.2671C113.663 22.991 113.528 23.6541 113.259 24.2479C112.995 24.8331 112.604 25.3445 112.11 25.765C111.62 26.1811 111.039 26.5105 110.379 26.7575ZM102.008 18.7909V25.8126H107.287C108.085 25.8126 108.787 25.7173 109.386 25.5396C109.998 25.3575 110.492 25.1105 110.895 24.7984C111.299 24.4863 111.594 24.1222 111.798 23.7061C112.002 23.2857 112.106 22.8263 112.106 22.3105V22.2671C112.097 21.1489 111.72 20.3513 110.93 19.7358C110.145 19.1247 108.996 18.7909 107.451 18.7909H102.008ZM120.664 17.2956L125.257 29.0027L129.838 17.2956H133.75L126.728 34.3124H123.713L116.907 17.8374L116.682 17.2956H120.664ZM158.605 17.2956L166.647 27.6894V17.2956H170.238V34.1953H167.289L158.995 23.4807V34.1953H155.399V17.2956H158.605ZM133.906 34.1953L141.345 17.1786H144.482L151.921 34.1953H148.069L147.171 32.0541L146.225 29.7916H143.549L144.911 26.6578L142.916 21.8684L142.881 21.9507L142.872 21.9334L140.695 27.0176H140.699L137.615 34.1953H133.906ZM181.416 17.1786H184.557L191.996 34.1997H188.144L187.242 32.0585L186.296 29.7959H183.611L184.982 26.6448L182.986 21.8597L182.93 21.9811V21.9724L180.766 27.0176H180.77L177.686 34.1953H173.977L181.416 17.1786Z" fill="#183558"/>
</g>
<defs>
<clipPath id="clip0">
<rect width="48.1093" height="48" fill="white"/>
</clipPath>
<clipPath id="clip1">
<rect width="130.77" height="17.4545" fill="white" transform="translate(61.23 17.0182)"/>
</clipPath>
</defs>
</svg>
